<svg width="43" height="40" viewBox="0 0 43 40" fill="none" xmlns="http://www.w3.org/2000/svg">
<g opacity="0.4">
<circle cx="41.4285" cy="0.952374" r="0.952374" transform="rotate(90 41.4285 0.952374)" fill="white"/>
<circle cx="41.429" cy="8.57139" r="0.952374" transform="rotate(90 41.429 8.57139)" fill="white"/>
<circle cx="41.429" cy="16.1903" r="0.952374" transform="rotate(90 41.429 16.1903)" fill="white"/>
<circle cx="41.429" cy="23.8093" r="0.952374" transform="rotate(90 41.429 23.8093)" fill="white"/>
<circle cx="41.429" cy="31.4283" r="0.952374" transform="rotate(90 41.429 31.4283)" fill="white"/>
<circle cx="41.429" cy="39.0472" r="0.952374" transform="rotate(90 41.429 39.0472)" fill="white"/>
<circle cx="33.3333" cy="0.952374" r="0.952374" transform="rotate(90 33.3333 0.952374)" fill="white"/>
<circle cx="33.3338" cy="8.57139" r="0.952374" transform="rotate(90 33.3338 8.57139)" fill="white"/>
<circle cx="33.3338" cy="16.1903" r="0.952374" transform="rotate(90 33.3338 16.1903)" fill="white"/>
<circle cx="33.3338" cy="23.8093" r="0.952374" transform="rotate(90 33.3338 23.8093)" fill="white"/>
<circle cx="33.3338" cy="31.4283" r="0.952374" transform="rotate(90 33.3338 31.4283)" fill="white"/>
<circle cx="33.3338" cy="39.0472" r="0.952374" transform="rotate(90 33.3338 39.0472)" fill="white"/>
<circle cx="25.2381" cy="0.952374" r="0.952374" transform="rotate(90 25.2381 0.952374)" fill="white"/>
<circle cx="25.2385" cy="8.57139" r="0.952374" transform="rotate(90 25.2385 8.57139)" fill="white"/>
<circle cx="25.2385" cy="16.1903" r="0.952374" transform="rotate(90 25.2385 16.1903)" fill="white"/>
<circle cx="25.2385" cy="23.8093" r="0.952374" transform="rotate(90 25.2385 23.8093)" fill="white"/>
<circle cx="25.2385" cy="31.4283" r="0.952374" transform="rotate(90 25.2385 31.4283)" fill="white"/>
<circle cx="25.2385" cy="39.0472" r="0.952374" transform="rotate(90 25.2385 39.0472)" fill="white"/>
<circle cx="17.1424" cy="0.952374" r="0.952374" transform="rotate(90 17.1424 0.952374)" fill="white"/>
<circle cx="17.1433" cy="8.57139" r="0.952374" transform="rotate(90 17.1433 8.57139)" fill="white"/>
<circle cx="17.1433" cy="16.1903" r="0.952374" transform="rotate(90 17.1433 16.1903)" fill="white"/>
<circle cx="17.1433" cy="23.8093" r="0.952374" transform="rotate(90 17.1433 23.8093)" fill="white"/>
<circle cx="17.1433" cy="31.4283" r="0.952374" transform="rotate(90 17.1433 31.4283)" fill="white"/>
<circle cx="17.1433" cy="39.0472" r="0.952374" transform="rotate(90 17.1433 39.0472)" fill="white"/>
<circle cx="9.04811" cy="0.952374" r="0.952374" transform="rotate(90 9.04811 0.952374)" fill="white"/>
<circle cx="9.0486" cy="8.57139" r="0.952374" transform="rotate(90 9.0486 8.57139)" fill="white"/>
<circle cx="9.0486" cy="16.1903" r="0.952374" transform="rotate(90 9.0486 16.1903)" fill="white"/>
<circle cx="9.0486" cy="23.8093" r="0.952374" transform="rotate(90 9.0486 23.8093)" fill="white"/>
<circle cx="9.0486" cy="31.4283" r="0.952374" transform="rotate(90 9.0486 31.4283)" fill="white"/>
<circle cx="9.0486" cy="39.0472" r="0.952374" transform="rotate(90 9.0486 39.0472)" fill="white"/>
<circle cx="0.952411" cy="0.952374" r="0.952374" transform="rotate(90 0.952411 0.952374)" fill="white"/>
<circle cx="0.952899" cy="8.57139" r="0.952374" transform="rotate(90 0.952899 8.57139)" fill="white"/>
<circle cx="0.952899" cy="16.1903" r="0.952374" transform="rotate(90 0.952899 16.1903)" fill="white"/>
<circle cx="0.952899" cy="23.8093" r="0.952374" transform="rotate(90 0.952899 23.8093)" fill="white"/>
<circle cx="0.952899" cy="31.4283" r="0.952374" transform="rotate(90 0.952899 31.4283)" fill="white"/>
<circle cx="0.952899" cy="39.0472" r="0.952374" transform="rotate(90 0.952899 39.0472)" fill="white"/>
</g>
</svg>
